<svg width="18" height="18" viewBox="0 0 18 18" fill="none" xmlns="http://www.w3.org/2000/svg">
<path d="M9 0C7.21997 0 5.47991 0.527841 3.99987 1.51677C2.51983 2.50571 1.36628 3.91131 0.685088 5.55585C0.00389957 7.20038 -0.17433 9.00998 0.172936 10.7558C0.520203 12.5016 1.37737 14.1053 2.63604 15.364C3.89471 16.6226 5.49836 17.4798 7.24419 17.8271C8.99002 18.1743 10.7996 17.9961 12.4442 17.3149C14.0887 16.6337 15.4943 15.4802 16.4832 14.0001C17.4722 12.5201 18 10.78 18 9C17.9974 6.61386 17.0483 4.32622 15.361 2.63896C13.6738 0.951708 11.3861 0.00264685 9 0ZM10.1667 12H5.94267L7.138 13.1953C7.20168 13.2568 7.25246 13.3304 7.2874 13.4117C7.32234 13.4931 7.34073 13.5805 7.3415 13.6691C7.34227 13.7576 7.3254 13.8454 7.29188 13.9273C7.25836 14.0092 7.20886 14.0837 7.14627 14.1463C7.08367 14.2089 7.00924 14.2584 6.9273 14.2919C6.84537 14.3254 6.75759 14.3423 6.66907 14.3415C6.58055 14.3407 6.49307 14.3223 6.41173 14.2874C6.3304 14.2525 6.25683 14.2017 6.19534 14.138L3.862 11.8047C3.73702 11.6796 3.66681 11.5101 3.66681 11.3333C3.66681 11.1566 3.73702 10.987 3.862 10.862L6.19534 8.52866C6.32107 8.40723 6.48947 8.34003 6.66427 8.34155C6.83907 8.34307 7.00628 8.41318 7.12988 8.53679C7.25349 8.66039 7.3236 8.8276 7.32512 9.0024C7.32664 9.1772 7.25944 9.3456 7.138 9.47133L5.94267 10.6667H10.1667C10.9181 10.6667 11.6388 10.3682 12.1701 9.8368C12.7015 9.30545 13 8.58478 13 7.83333C13 7.08188 12.7015 6.36122 12.1701 5.82986C11.6388 5.29851 10.9181 5 10.1667 5H5.66667C5.48986 5 5.32029 4.92976 5.19527 4.80474C5.07024 4.67971 5 4.51014 5 4.33333C5 4.15652 5.07024 3.98695 5.19527 3.86193C5.32029 3.7369 5.48986 3.66667 5.66667 3.66667H10.1667C11.2717 3.66667 12.3315 4.10565 13.1129 4.88705C13.8943 5.66846 14.3333 6.72826 14.3333 7.83333C14.3333 8.9384 13.8943 9.99821 13.1129 10.7796C12.3315 11.561 11.2717 12 10.1667 12Z" fill="#1585C0"/>
</svg>
