<svg width="18" height="18" viewBox="0 0 18 18" fill="none" xmlns="http://www.w3.org/2000/svg">
<path d="M9 18C13.9706 18 18 13.9706 18 9C18 4.02944 13.9706 0 9 0C4.02944 0 0 4.02944 0 9C0 13.9706 4.02944 18 9 18Z" fill="#EE404C"/>
<path d="M5.39645 12.58C5.48949 12.6744 5.60034 12.7493 5.72256 12.8004C5.84479 12.8515 5.97596 12.8779 6.10845 12.8779C6.24094 12.8779 6.37211 12.8515 6.49434 12.8004C6.61657 12.7493 6.72742 12.6744 6.82045 12.58L8.97645 10.424L11.1325 12.58C11.3213 12.7689 11.5774 12.875 11.8445 12.875C12.1115 12.875 12.3676 12.7689 12.5565 12.58C12.7453 12.3912 12.8514 12.1351 12.8514 11.868C12.8514 11.601 12.7453 11.3449 12.5565 11.156L10.4005 9.00004L12.5565 6.84404C12.65 6.75054 12.7241 6.63954 12.7747 6.51737C12.8253 6.39521 12.8514 6.26427 12.8514 6.13204C12.8514 5.99981 12.8253 5.86888 12.7747 5.74671C12.7241 5.62455 12.65 5.51354 12.5565 5.42004C12.463 5.32654 12.3519 5.25237 12.2298 5.20177C12.1076 5.15117 11.9767 5.12512 11.8445 5.12512C11.7122 5.12512 11.5813 5.15117 11.4591 5.20177C11.337 5.25237 11.226 5.32654 11.1325 5.42004L8.97645 7.57604L6.82045 5.42004C6.72695 5.32654 6.61595 5.25237 6.49379 5.20177C6.37162 5.15117 6.24068 5.12512 6.10845 5.12512C5.97622 5.12512 5.84529 5.15117 5.72312 5.20177C5.60096 5.25237 5.48995 5.32654 5.39645 5.42004C5.30295 5.51354 5.22878 5.62455 5.17818 5.74671C5.12758 5.86888 5.10153 5.99981 5.10153 6.13204C5.10153 6.26427 5.12758 6.39521 5.17818 6.51737C5.22878 6.63954 5.30295 6.75054 5.39645 6.84404L7.55245 9.00004L5.39645 11.156C5.30212 11.2491 5.22721 11.3599 5.17609 11.4822C5.12496 11.6044 5.09863 11.7356 5.09863 11.868C5.09863 12.0005 5.12496 12.1317 5.17609 12.2539C5.22721 12.3762 5.30212 12.487 5.39645 12.58Z" fill="#FFF7ED"/>
</svg>
